PathFileType	4	(X/Y/Z)	C:/Users/beibeiliu/ov580/test_trc\sequence.29_training_dense_left.trc
DataRate	CameraRate	NumFrames	NumMarkers	Units	OrigDataRate	OrigDataStartFrame	OrigNumFrames
120	120	10	19	mm	120	176	200
Frame#	Time	ThumbCMC			ThumbMCP			ThumbIP			ThumbTip			IndexMCP			IndexPIP			IndexTip			MiddleMCP			MiddlePIP			MiddleTip			RingMCP			RingPIP			RingTip			PinkyMCP			PinkyPIP			PinkyTip			BackHand1			BackHand2			BackHand3	
		X0	Y0	Z0	X1	Y1	Z1	X2	Y2	Z2	X3	Y3	Z3	X4	Y4	Z4	X5	Y5	Z5	X6	Y6	Z6	X7	Y7	Z7	X8	Y8	Z8	X9	Y9	Z9	X10	Y10	Z10	X11	Y11	Z11	X12	Y12	Z12	X13	Y13	Z13	X14	Y14	Z14	X15	Y15	Z15	X16	Y16	Z16	X17	Y17	Z17	X18	Y18	Z18	
175	1.45833	-213.378	13.3601	93.9689	-195.232	34.375	69.2882	-182.448	40.4487	47.168	-171.663	46.8966	27.3389	-193.324	-1.95609	27.5281	-182.657	18.2514	12.1328	-163.933	42.7127	9.37401	-171.966	-8.83759	28.3748	-157.762	12.929	17.9223	-144.297	46.2844	20.1076	-156.271	-14.3126	37.3738	-145.438	10.3519	25.5026	-136.804	34.8742	25.0321	-141.19	-22.0801	51.0908	-132.794	-2.32623	39.4128	-125.442	23.8933	30.2881	-182.038	-39.0654	86.9677	-190.494	-37.2521	111.992	-213.92	-25.6479	90.8825	
176	1.46667	-232.785	1.27364	88.9228	-218.071	19.2725	64.377	-210.569	24.5639	40.3538	-203.814	27.2116	18.863	-223.957	-20.0051	26.4253	-210.088	0.630707	7.10217	-197.75	20.586	-0.542433	-202.761	-25.7662	24.4409	-193.699	-4.61868	9.80064	-179.845	28.1528	3.26606	-184.53	-30.7469	31.8082	-173.211	-10.5601	16.067	-168.409	20.3715	8.76999	-173.018	-35.9837	43.0772	-160.044	-16.6428	26.429	-154.974	4.83917	14.0371	-200.659	-52.4172	85.0519	-205.347	-48.2743	112.484	-234.438	-38.8387	90.5848	
177	1.475	-255.323	10.2596	91.8642	-239.249	24.6358	63.6015	-234.826	28.1284	40.4939	-228.993	26.7319	14.3811	-256.228	-12.3664	23.9957	-242.543	3.05304	6.26417	-226.571	26.2112	-4.17107	-235.424	-23.5968	25.6464	-221.708	-0.762615	4.81363	-207.238	24.2162	-1.34337	-219.49	-28.3883	26.5687	-205.648	-11.8591	11.0998	-196.488	17.8528	0.474351	-199.624	-38.0934	41.9287	-190.686	-21.2382	21.8868	-183.259	1.1881	4.79772	-228.059	-49.9866	79.7816	-226.076	-44.1208	113.932	-257.054	-33.0635	95.6236	
178	1.48333	-262.981	31.4743	93.1049	-246.204	38.2913	64.8443	-242.898	48.9503	37.3451	-238.174	48.8306	16.0596	-275.514	13.0517	28.7611	-258.49	25.1059	6.89176	-238.455	46.8729	-4.67095	-260.053	1.85385	20.0083	-242.824	20.0791	3.03349	-222.537	41.2523	-3.95579	-244.003	-11.3784	24.8048	-224.528	3.99615	5.96401	-214.103	29.0452	-2.99452	-224.998	-23.7194	32.7052	-217.601	-9.37479	18.3368	-207.054	10.4237	0.334141	-250.846	-32.7957	77.2775	-251.797	-28.4675	107.273	-277.51	-8.77947	95.2192	
179	1.49167	-255.902	56.3894	97.1507	-238.699	64.3862	70.4635	-234.924	69.0257	40.6517	-232.045	68.1742	20.0034	-276.169	51.4421	26.5656	-262.391	62.4504	10.2198	-234.341	67.1797	-0.28093	-270.134	35.1267	22.5759	-250.785	46.3788	4.06597	-221.924	59.1726	-4.6481	-255.665	14.2201	22.1962	-239.531	28.259	4.95812	-216.259	46.7631	-5.27248	-244.83	0.0262111	26.4036	-232.579	14.1354	11.1507	-216.747	26.8993	-3.5233	-269.947	-4.65383	75.5337	-265.247	-2.83731	105.832	-282.734	23.444	96.3334	
180	1.5	-234.773	76.9361	97.9694	-215.912	82.0795	72.4452	-211.824	90.3548	39.9587	-215.556	83.6824	16.1756	-258.873	88.3849	34.4581	-235.974	93.1042	12.7949	-209.794	93.0086	3.14964	-257.302	75.4552	22.1186	-234.501	78.3511	3.28786	-205.147	77.5281	-5.84393	-255.424	51.5705	17.2553	-237.808	57.9536	4.45757	-207.975	61.9014	-6.96707	-254.268	35.785	24.2755	-238.165	39.6859	8.92426	-218.412	45.3011	-6.62759	-277.465	38.3822	72.7791	-273.673	27.1358	99.0613	-271.007	58.778	96.0948	
181	1.50833	-201.399	77.3608	98.3486	-180.567	79.6733	69.2824	-175.667	84.7276	44.3669	-185.463	83.7547	17.8613	-211.72	110.56	36.5796	-195.41	103.788	19.0775	-169.209	86.6824	6.70505	-224.933	95.5507	26.9247	-204.324	91.6877	8.60039	-177.563	72.0312	-6.75094	-236.47	75.0483	23.1522	-212.051	71.0799	2.44581	-189.682	62.0623	-5.7458	-245.129	57.0105	25.2656	-222.677	59.2609	8.40055	-201.96	52.0973	-7.58536	-258.103	69.2199	75.2813	-257.286	51.8194	102.635	-241.762	83.4933	95.8356	
182	1.51667	-171.006	60.7533	103.271	-150.861	55.7971	72.5513	-145.018	59.0431	43.7774	-155.061	61.0424	21.813	-165.142	98.7698	42.4888	-150.579	84.8341	22.0729	-140.05	54.8518	10.6157	-181.558	91.397	29.786	-165.562	73.0657	7.33732	-154.336	49.8994	-1.90963	-196.141	79.5634	24.1249	-182.753	62.5649	5.82298	-165.026	37.4489	-2.09373	-216.477	67.1273	25.2361	-204.473	53.8319	8.54737	-181.123	36.0301	-0.75683	-226.589	79.149	76.7504	-231.071	65.9442	105.714	-202.601	84.7422	101.209	
183	1.525	-151.48	46.9735	105.526	-131.97	31.528	78.9861	-126.099	30.3661	51.1851	-143.684	34.1215	28.9128	-136.133	71.6085	39.6155	-121.908	46.9917	23.4741	-123.173	19.7693	20.6568	-156.154	69.459	30.5586	-142.511	43.1133	10.743	-137.751	11.5359	8.7074	-173.24	61.3821	25.5334	-163.89	35.8946	9.25469	-152.206	9.62612	12.7985	-195.793	55.476	27.4873	-180.031	35.8231	14.0337	-165.636	12.7003	10.9724	-196.835	76.0686	79.1711	-210.379	68.1769	104.196	-176.081	76.4399	102.369	
184	1.53333	-133.561	35.7009	110.68	-117.588	13.9713	91.0309	-113.143	7.81296	64.1953	-124.689	7.70395	42.7738	-116.567	46.4585	45.246	-107.614	21.4009	33.4815	-114.808	-8.86902	34.8806	-134.124	41.3413	30.8797	-123.499	17.0293	22.0662	-124.936	-16.7858	29.8627	-153.451	36.5636	26.1641	-145.047	9.84174	21.5133	-141.567	-19.4793	38.6787	-174.264	34.2394	29.1477	-161.46	9.70039	23.8386	-153.692	-14.7191	38.9063	-177.924	65.8028	75.1437	-189.777	60.9208	104.099	-155.14	67.1125	99.6387	
